<svg height="512" viewBox="0 0 64 64" width="512" xmlns="http://www.w3.org/2000/svg"><g id="virus-covid19-corona-rip-dead"><path d="m32 3a18 18 0 0 1 18 18v38a0 0 0 0 1 0 0h-36a0 0 0 0 1 0 0v-38a18 18 0 0 1 18-18z" fill="#d1d3d4"/><path d="m43.276 6.981a17.957 17.957 0 0 1 .724 5.019v2a36 36 0 0 1 -30 35.493v9.507h36v-38a17.954 17.954 0 0 0 -6.724-14.019z" fill="#bcbebf"/><g fill="#9bc9ff"><circle cx="50" cy="7" r="1"/><path d="m45.757 8.343a1 1 0 1 0 0 1.414 1 1 0 0 0 0-1.414z"/><circle cx="43" cy="14" r="1"/><path d="m44.343 18.243a1 1 0 1 0 1.414 0 1 1 0 0 0 -1.414 0z"/><circle cx="50" cy="21" r="1"/><path d="m54.243 19.657a1 1 0 1 0 0-1.414 1 1 0 0 0 0 1.414z"/><circle cx="57" cy="14" r="1"/><path d="m55.657 9.757a1 1 0 1 0 -1.414 0 1 1 0 0 0 1.414 0z"/></g><circle cx="50" cy="14" fill="#006838" r="11"/><path d="m50 3a11.078 11.078 0 0 0 -1.5.114 10.987 10.987 0 0 1 0 21.772 10.995 10.995 0 1 0 1.5-21.886z" fill="#005e32"/><circle cx="50" cy="14" fill="#ab2300" r="3"/><path d="m46.142 13h-1.42a2 2 0 1 0 0 2h1.42a3.915 3.915 0 0 0 .425 1.019l-1.006 1.006a2 2 0 1 0 1.414 1.414l1.006-1.006a3.915 3.915 0 0 0 1.019.425v1.42a2 2 0 1 0 2 0v-1.42a3.915 3.915 0 0 0 1.019-.425l1.006 1.006a2 2 0 1 0 1.414-1.414l-1.006-1.006a3.915 3.915 0 0 0 .425-1.019h1.42a2 2 0 1 0 0-2h-1.42a3.915 3.915 0 0 0 -.425-1.019l1.006-1.006a2.016 2.016 0 0 0 .511.074 2 2 0 1 0 -1.925-1.488l-1.006 1.006a3.915 3.915 0 0 0 -1.019-.425v-1.42a2 2 0 1 0 -2 0v1.42a3.915 3.915 0 0 0 -1.019.425l-1.006-1.006a1.993 1.993 0 1 0 -1.925 1.488 2.016 2.016 0 0 0 .511-.074l1.006 1.006a3.915 3.915 0 0 0 -.425 1.019zm3.858-1a2 2 0 1 1 -2 2 2 2 0 0 1 2-2z" fill="#ed1c24"/><path d="m24.81 31.92a4 4 0 0 0 -.81-7.92h-3a1 1 0 0 0 -1 1v12a1 1 0 0 0 2 0v-5h.46l3.71 5.55a1 1 0 0 0 .83.45.939.939 0 0 0 .55-.17.99.99 0 0 0 .28-1.38zm-2.81-1.92v-4h2a2 2 0 0 1 0 4z" fill="#ab2300"/><path d="m32 38a1 1 0 0 0 1-1v-12a1 1 0 0 0 -2 0v12a1 1 0 0 0 1 1z" fill="#ab2300"/><path d="m37 38a1 1 0 0 0 1-1v-5h2a4 4 0 0 0 0-8h-3a1 1 0 0 0 -1 1v12a1 1 0 0 0 1 1zm1-12h2a2 2 0 0 1 0 4h-2z" fill="#ab2300"/><path d="m21 44h22a1 1 0 0 0 0-2h-22a1 1 0 0 0 0 2z" fill="#6d6e71"/><path d="m40 46h-16a1 1 0 0 0 0 2h16a1 1 0 0 0 0-2z" fill="#6d6e71"/><path d="m60 47a1 1 0 0 0 -1 1v3a1.993 1.993 0 0 1 -1 1.722v-4.722a1 1 0 0 0 -2 0v4.722a1.993 1.993 0 0 1 -1-1.722v-3a1 1 0 0 0 -2 0v3a4 4 0 0 0 3 3.858v5.142a1 1 0 0 0 2 0v-5.142a4 4 0 0 0 3-3.858v-3a1 1 0 0 0 -1-1z" fill="#5eac24"/><path d="m10 47a1 1 0 0 0 -1 1v3a1.993 1.993 0 0 1 -1 1.722v-4.722a1 1 0 0 0 -2 0v4.722a1.993 1.993 0 0 1 -1-1.722v-3a1 1 0 0 0 -2 0v3a4 4 0 0 0 3 3.858v5.142a1 1 0 0 0 2 0v-5.142a4 4 0 0 0 3-3.858v-3a1 1 0 0 0 -1-1z" fill="#5eac24"/><path d="m14.412 56.278-.412.17-11 4.552h58l-11-4.552-.412-.17a46 46 0 0 0 -35.176 0z" fill="#4e901e"/></g></svg>