<svg height="512" viewBox="0 0 64 64" width="512" xmlns="http://www.w3.org/2000/svg"><g id="virus-covid19-corona-dead-rip"><path d="m43 20-9 41h-22l-9-41 9-17h22z" fill="#754c29"/><path d="m34 3h-2l9 17-9 41h2l9-41z" fill="#694425"/><path d="m36.73 20.87-7.69 34.13h-12.08l-7.69-34.13 6.44-11.87h14.58z" fill="#c49a6c"/><path d="m30.29 9h-2l6.44 11.87-7.69 34.13h2l7.69-34.13z" fill="#b08b61"/><path d="m25 13h-4v6h-6v4h6v10h4v-10h6v-4h-6z" fill="#ab2300"/><g fill="#9bc9ff"><circle cx="48" cy="38" r="1"/><path d="m43.05 39.636a1 1 0 1 0 0 1.414 1 1 0 0 0 0-1.414z"/><circle cx="40" cy="46" r="1"/><path d="m41.636 50.95a1 1 0 1 0 1.414 0 1 1 0 0 0 -1.414 0z"/><circle cx="48" cy="54" r="1"/><path d="m52.95 52.364a1 1 0 1 0 0-1.414 1 1 0 0 0 0 1.414z"/><circle cx="56" cy="46" r="1"/><path d="m54.364 41.05a1 1 0 1 0 -1.414 0 1 1 0 0 0 1.414 0z"/></g><circle cx="48" cy="46" fill="#006838" r="13"/><path d="m48 33a13.032 13.032 0 0 0 -1.5.093 12.993 12.993 0 0 1 0 25.814 13 13 0 1 0 1.5-25.907z" fill="#005e32"/><circle cx="48" cy="46" fill="#ab2300" r="4"/><path d="m56 44a1.993 1.993 0 0 0 -1.722 1h-1.378a4.961 4.961 0 0 0 -.732-1.753l.978-.978a1.95 1.95 0 0 0 1.926-.512 2 2 0 0 0 0-2.827 2.047 2.047 0 0 0 -2.828 0 1.95 1.95 0 0 0 -.512 1.926l-.978.978a4.961 4.961 0 0 0 -1.754-.734v-1.378a2 2 0 1 0 -2 0v1.378a4.961 4.961 0 0 0 -1.753.732l-.978-.978a1.95 1.95 0 0 0 -.512-1.926 2.047 2.047 0 0 0 -2.827 0 1.989 1.989 0 0 0 1.925 3.34l.978.978a4.961 4.961 0 0 0 -.733 1.754h-1.378a2 2 0 1 0 0 2h1.378a4.961 4.961 0 0 0 .732 1.753l-.99.99a2.034 2.034 0 0 0 -1.914.5 2.012 2.012 0 1 0 3.34.9l.978-.978a4.961 4.961 0 0 0 1.754.735v1.379a2 2 0 1 0 2 0v-1.379a4.961 4.961 0 0 0 1.753-.732l.978.978a1.95 1.95 0 0 0 .512 1.926 2 2 0 1 0 2.828-2.828 2.033 2.033 0 0 0 -1.914-.5l-.99-.99a4.961 4.961 0 0 0 .733-1.754h1.379a2 2 0 1 0 1.721-3zm-8 5a3 3 0 1 1 3-3 3 3 0 0 1 -3 3z" fill="#ed1c24"/></g></svg>