<svg id="Flat" height="512" viewBox="0 0 512 512" width="512" xmlns="http://www.w3.org/2000/svg"><path d="m424 360h48v128h-48z" fill="#e44b4d" transform="matrix(-1 0 0 -1 896 848)"/><path d="m328 320h48v168h-48z" fill="#eb6d3b"/><path d="m232 280h48v208h-48z" fill="#efa702" transform="matrix(-1 0 0 -1 512 768)"/><path d="m136 240h48v248h-48z" fill="#4ba477"/><path d="m40 168h48v320h-48z" fill="#396795" transform="matrix(-1 0 0 -1 128 656)"/><path d="m473.62012 265.48-35.73 62.52-27.78028-15.88 18.42016-32.23a464.84944 464.84944 0 0 1 -394.54-240.1l28.02-15.46a432.85256 432.85256 0 0 0 370.86988 223.65l-15.85986-42.3 29.96-11.24z" fill="#e44b4d"/><g fill="#eedc9a"><path d="m144 392-40 40a11.29853 11.29853 0 0 0 0 16 11.31063 11.31063 0 0 1 0 16l-8 8a11.31074 11.31074 0 0 1 -16 0l-8-8a11.29853 11.29853 0 0 1 0-16 11.31074 11.31074 0 0 1 -16 0l-8-8a11.31063 11.31063 0 0 1 0-16l8-8a11.29839 11.29839 0 0 1 16 0 11.31074 11.31074 0 0 0 16 0l40-40a11.31371 11.31371 0 0 1 16 16z"/><path d="m264 304-8 8a11.29839 11.29839 0 0 1 -16 0 11.31074 11.31074 0 0 0 -16 0l-40 40a11.31371 11.31371 0 0 1 -16-16l31.04-31.04 8.96-8.96a11.29853 11.29853 0 0 0 0-16 11.31063 11.31063 0 0 1 0-16l8-8a11.31074 11.31074 0 0 1 16 0l8 8a11.29853 11.29853 0 0 1 0 16 11.31074 11.31074 0 0 1 16 0l8 8a11.31074 11.31074 0 0 1 0 16z"/><path d="m147.32 344a11.32 11.32 0 0 1 -19.32 8l-39.5-39.5a11.29839 11.29839 0 0 0 -16 0 11.31074 11.31074 0 0 1 -16 0l-8-8a11.31063 11.31063 0 0 1 0-16l8-8a11.29839 11.29839 0 0 1 16 0 11.31063 11.31063 0 0 1 0-16l8-8a11.31074 11.31074 0 0 1 16 0l8 8a11.29853 11.29853 0 0 1 0 16 11.31063 11.31063 0 0 0 0 16l8.46 8.46 31.04 31.04a11.275 11.275 0 0 1 3.32 8z"/><path d="m263.5 439.5-8 8a11.29839 11.29839 0 0 1 -16 0 11.31063 11.31063 0 0 1 0 16l-8 8a11.31074 11.31074 0 0 1 -16 0l-8-8a11.29853 11.29853 0 0 1 0-16 11.31063 11.31063 0 0 0 0-16l-39.5-39.5a11.31371 11.31371 0 0 1 16-16l39.5 39.5a11.29839 11.29839 0 0 0 16 0 11.31074 11.31074 0 0 1 16 0l8 8a11.31074 11.31074 0 0 1 0 16z"/></g><path d="m144 376a11.31063 11.31063 0 0 1 0 16l-32 32v-9.41016a84.5436 84.5436 0 0 1 -14.22-8.36984l30.22-30.22a11.29839 11.29839 0 0 1 16 0z" fill="#eebe33"/><path d="m144 336a11.31371 11.31371 0 0 1 -16 16l-34.7-34.69995c1.35-1.15015 2.75-2.26 4.22-3.34009a85.33236 85.33236 0 0 1 15.44-9z" fill="#eebe33"/><path d="m184 376 30.22 30.22a84.5436 84.5436 0 0 1 -14.22 8.36984v9.41016l-32-32a11.31371 11.31371 0 0 1 16-16z" fill="#eebe33"/><path d="m168 352a11.31063 11.31063 0 0 1 0-16l31.04-31.04a85.33236 85.33236 0 0 1 15.44 9c1.47 1.08008 2.87 2.18994 4.22 3.34009l-34.7 34.69991a11.29839 11.29839 0 0 1 -16 0z" fill="#eebe33"/><path d="m232 360c0 21.33008-16.18 39.87012-40 49.33008v14.66992a16 16 0 0 1 -16 16h-40a16 16 0 0 1 -16-16v-14.66992c-23.82-9.46-40-28-40-49.33008 0-30.92993 34.03-56 76-56s76 25.07007 76 56z" fill="#eedc9a"/><path d="m136 416h16v24h-16z" fill="#eebe33"/><path d="m160 416h16v24h-16z" fill="#eebe33"/><circle cx="120" cy="360" fill="#395166" r="16"/><circle cx="192" cy="360" fill="#395166" r="16"/><path d="m144 400 11-24 13 24z" fill="#395166"/></svg>