<svg id="Capa_1" enable-background="new 0 0 512 512" height="512" viewBox="0 0 512 512" width="512" xmlns="http://www.w3.org/2000/svg"><g><g><path d="m256 144.238v223.524l256-46.943v-129.638z" fill="#ede0c2"/><path d="m0 191.181v129.638l256 46.943 34.876-111.762-34.876-111.762z" fill="#f9f2e8"/></g><g><path d="m191.203 256c0 35.798 29.02 64.819 64.819 64.819l18.341-64.819-18.342-64.819c-35.798 0-64.818 29.021-64.818 64.819z" fill="#422e6c"/><path d="m256.021 191.181v129.638c35.798 0 64.819-29.02 64.819-64.819s-29.02-64.819-64.819-64.819z" fill="#2b1951"/></g><path d="m256 61.543h-256v129.638h256.021l56.768-64.819z" fill="#ffb54c"/><path d="m256 61.543.021 129.638h255.979v-129.638z" fill="#ff8b41"/><path d="m256 320.819h-256v129.638h256.021l56.768-64.819z" fill="#27d072"/><path d="m256 320.819.021 129.638h255.979v-129.638z" fill="#1da55a"/></g></svg>