<svg id="Capa_1" enable-background="new 0 0 512 512" height="512" viewBox="0 0 512 512" width="512" xmlns="http://www.w3.org/2000/svg"><g><g><g fill="#8690a6"><path d="m438.52 117.2-18.41-7.81-8.95 72.25h.01c-6.48 15.25.64 32.86 15.89 39.33 15.25 6.48 32.86-.64 39.34-15.89l3.9-9.2c12.95-30.51-1.28-65.73-31.78-78.68z"/><path d="m276 70h-20l20 70c0 16.57 13.43 30 30 30s30-13.43 30-30v-10c0-33.14-26.86-60-60-60z"/><path d="m192.88 142.56-3.9-9.2c-12.95-30.5-48.17-44.73-78.68-31.79l-18.41 7.82 45.95 57.06c6.63 14.95 24.05 21.87 39.15 15.45 15.25-6.47 22.37-24.08 15.89-39.34z"/></g><path d="m256 256c-132.199 0-246 113.093-246 246h492c0-132.787-113.672-246-246-246z" fill="#91def5"/><path d="m502 502h-119.65v-.09c-26.07-28.5 13.13-57.36-4.51-85.91-16.42-26.58-80-5.07-80-40s80-40 80-40h57.05l.16-.14c41.24 44.26 66.95 103.03 66.95 166.14z" fill="#a7e8a6"/><path d="m415.94 42.44c15.25 6.47 22.36 24.08 15.89 39.33s-24.09 22.37-39.34 15.9c-15.25-6.48-22.37-24.09-15.89-39.34 6.47-15.25 24.08-22.37 39.34-15.89z" fill="#ffda8f"/><path d="m420.11 109.39c10.16 4.31 14.91 16.06 10.59 26.22-5.629 13.262-56.502 133.108-63.04 148.51-11.77-6.23-24.05-11.53-36.75-15.79l62.97-148.35c4.32-10.16 16.06-14.91 26.23-10.59z" fill="#ff7b79"/><path d="m276 140-.01 116.87c-6.61-.58-13.27-.87-19.99-.87s-13.39.29-20 .87v-166.87c0-11.05 8.95-20 20-20s20 8.95 20 20z" fill="#a7e8a6"/><circle cx="226" cy="40" fill="#fce8d0" r="30"/><path d="m217.84 336c13.37 32.27-43.54 58.19-40 80s36.46 18.19 40 40c1.7 10.45-7.42 29.25-17.37 46h-39.7c-15.51-28.77-39.48-68.09-62.93-86-15.66-11.96-37.91-20.74-59.02-26.98 16.9-31.45 40.46-59.15 68.6-81.02 30.54 24.89 98.55-.66 110.42 28z" fill="#a7e8a6"/><path d="m181.09 268.33c-12.7 4.26-24.98 9.56-36.75 15.79l-63.04-148.51c-4.32-10.16.43-21.91 10.59-26.22 10.17-4.32 21.91.43 26.23 10.59 1.414 3.331 62.694 147.699 62.97 148.35z" fill="#ffda8f"/><path d="m80.17 81.77c6.47 15.25-.64 32.87-15.89 39.34s-32.87-.64-39.34-15.89.64-32.87 15.89-39.34c15.26-6.47 32.87.64 39.34 15.89z" fill="#bf978f"/></g><g><path d="m380.383 279.74 26.448-62.305c4.175 5.559 9.75 9.952 16.318 12.738 20.302 8.631 43.832-.889 52.459-21.19l3.897-9.195c15.081-35.53-1.552-76.708-37.08-91.793l-14.151-6.004c5.444-4.087 9.918-9.611 12.762-16.315 8.613-20.304-.892-43.829-21.188-52.438-20.342-8.641-43.814.824-52.453 21.184-8.643 20.344.829 43.805 21.189 52.456.535.227 1.073.434 1.612.636-2.258 2.453-4.145 5.322-5.522 8.561l-59.429 140.007c-12.892-3.806-26.029-6.548-39.246-8.191v-73.271c5.888 3.415 12.717 5.382 20 5.382 22.056 0 40-17.944 40-40v-10c0-38.598-31.402-70-70-70h-15.382c3.417-5.89 5.383-12.719 5.383-20.002 0-22.056-17.944-40-40-40s-40 17.944-40 40 17.944 40 40 40c.582 0 1.159-.019 1.735-.044-1.12 3.142-1.735 6.522-1.735 10.044v157.889c-13.217 1.644-26.355 4.386-39.246 8.192l-26.384-62.157c7.259.923 14.2-.127 20.527-2.817 20.353-8.636 29.832-32.1 21.19-52.449l-3.901-9.205c-15.083-35.521-56.262-52.157-91.795-37.086l-14.155 6.012c.842-6.755-.015-13.809-2.86-20.514-8.61-20.295-32.138-29.803-52.451-21.19-20.349 8.634-29.825 32.099-21.19 52.451 8.587 20.242 32.086 29.831 52.452 21.191.53-.225 1.047-.465 1.562-.71.206 3.37.987 6.715 2.346 9.911l59.522 140.222c-78.021 44.899-131.617 129.281-131.617 222.26 0 5.522 4.478 10 10 10h492c5.522 0 10-4.478 10-10 0-93.619-53.959-177.586-131.617-222.26zm-45.154 129.91c14.325 1.754 29.139 3.567 34.104 11.606 5.546 8.976 3.214 17.935-1.05 31.809-3.539 11.516-7.692 25.046-3.264 38.935h-147.586c10.949-21.542 11.244-31.663 10.278-37.603-2.592-15.963-15.778-22.542-25.406-27.346-9.487-4.733-13.734-7.36-14.594-12.654-.718-4.418 8.759-14.473 15.679-21.814 15.077-15.997 33.841-35.907 23.689-60.409-8.682-20.961-34.701-21.296-59.864-21.62-14.437-.186-29.205-.394-40.864-3.954 38.076-25.838 82.896-40.588 129.65-40.593 57.34-.007 112.024 22.277 154.613 59.993 0 0-33.196.007-33.406.021-9.146.579-89.367 6.907-89.367 49.979-.001 26.877 24.864 30.892 47.388 33.65zm-79.229-329.65c5.514 0 10 4.486 10 10v156.215c-3.325-.137-6.663-.205-10-.206-3.34 0-6.678.068-10 .205v-156.214c0-5.514 4.486-10 10-10zm205.093 111.978-3.896 9.191c-4.324 10.175-16.051 14.923-26.232 10.595-10.173-4.317-14.913-16.042-10.591-26.214.021-.049.034-.099.054-.148l19.475-45.879c1.249-2.938 2.004-6.001 2.279-9.093 20.053 12.932 28.547 38.845 18.911 61.548zm-75.287-129.742c4.307-10.154 16.028-14.923 26.229-10.59 10.146 4.304 14.896 16.065 10.589 26.218s-16.069 14.912-26.224 10.602c-10.175-4.323-14.921-16.051-10.594-26.23zm17.276 61.658c2.16-5.077 8.047-7.458 13.122-5.298 5.036 2.136 7.469 7.985 5.291 13.107l-58.875 138.698c-6.037-2.877-12.174-5.514-18.374-7.895zm-77.082 6.106v10c0 11.028-8.972 20-20 20s-20-8.972-20-20v-50c0-3.23-.519-6.339-1.468-9.257 23.518 4.062 41.468 24.596 41.468 49.257zm-120-90c0-11.028 8.972-20 20-20s20 8.972 20 20-8.972 20-20 20-20-8.972-20-20zm-26.227 97.263 3.902 9.206c4.321 10.178-.41 21.906-10.598 26.229-9.964 4.237-21.63-.354-26.058-10.224l-19.698-46.406c-1.263-2.97-2.956-5.627-4.968-7.939 23.242-5.444 47.787 6.445 57.42 29.134zm-119.398-25.359c-10.16 4.313-21.924-.441-26.229-10.591-4.314-10.164.408-21.908 10.587-26.227 10.11-4.287 21.907.394 26.23 10.588 4.31 10.158-.441 21.925-10.588 26.23zm35.424 6.69c5.075-2.158 10.96.221 13.116 5.293 12.495 29.451 42.482 100.082 58.839 138.62-6.201 2.382-12.339 5.019-18.374 7.895l-58.877-138.704c-2.131-5.011.152-10.922 5.296-13.104zm-51.916 282.474c10.917 3.542 20.672 7.396 29.039 11.505 4.966 2.439 10.955.378 13.384-4.569 2.434-4.958.388-10.95-4.569-13.384-8.273-4.062-17.694-7.875-28.092-11.391 14.302-23.647 32.838-45.102 54.295-62.821 16.898 9.596 39.12 9.888 59.019 10.144 18.684.24 38.004.489 41.644 9.276 4.837 11.675-4.687 23.036-19.767 39.037-11.912 12.64-23.164 24.578-20.866 38.737 2.591 15.963 15.778 22.542 25.406 27.346 9.487 4.733 13.734 7.36 14.595 12.657.244 1.502.649 9.904-13.255 34.395h-28.008c-6.044-10.971-12.114-21.232-18.083-30.562-2.976-4.651-9.159-6.012-13.813-3.033-4.652 2.977-6.011 9.16-3.033 13.813 3.953 6.179 7.959 12.801 11.976 19.782h-123.526c1.431-31.173 9.529-62.274 23.654-90.932zm343.297 90.932c-6.555-9.349-4.228-18.586.22-33.06 4.251-13.833 9.542-31.049-1.053-48.196-10.015-16.21-30.561-18.727-48.688-20.946-24.245-2.969-29.819-5.548-29.819-13.798 0-19.89 50.347-28.526 70.35-30h52.574c37.198 41.372 58.623 92.724 61.011 146z"/><circle cx="113" cy="431" r="10"/></g></g></svg>