<svg id="Layer_1" enable-background="new 0 0 512 512" height="512" viewBox="0 0 512 512" width="512" xmlns="http://www.w3.org/2000/svg"><g><path d="m130.608 145.92c0 34.321-25.065 24.842-54.526 24.842s-52.163 9.478-52.163-24.842 23.883-87.92 53.345-87.92 53.344 53.6 53.344 87.92z" fill="#be652b"/><path d="m30.905 153.836h92.716v120.972h-92.716z" fill="#ffd54f"/><path d="m92.716 153.836h30.905v120.972h-30.905z" fill="#ffc328"/><path d="m57.81 452.681h-22.904c-2.209 0-4.001-1.791-4.001-4.001v-161.113h30.905v161.113c.001 2.209-1.79 4.001-4 4.001z" fill="#ebad88"/><path d="m119.621 452.681h-22.904c-2.209 0-4.001-1.791-4.001-4.001v-161.113h30.905v161.113c.001 2.209-1.79 4.001-4 4.001z" fill="#ebad88"/><path d="m57.811 452.681h-22.906c-2.209 0-4-1.791-4-4v-13.523c0-8.534 6.918-15.453 15.453-15.453 8.534 0 15.453 6.918 15.453 15.453v13.523c0 2.209-1.791 4-4 4z" fill="#be652b"/><path d="m119.622 452.681h-22.906c-2.209 0-4-1.791-4-4v-13.523c0-8.534 6.918-15.453 15.453-15.453 8.534 0 15.453 6.918 15.453 15.453v13.523c0 2.209-1.791 4-4 4z" fill="#be652b"/><path d="m15.453 308.177c-8.535 0-15.453-6.919-15.453-15.453v-114.163c0-13.655 11.069-24.724 24.724-24.724h6.181v138.888c0 8.533-6.918 15.452-15.452 15.452z" fill="#ebad88"/><path d="m139.074 308.177c8.534 0 15.453-6.918 15.453-15.453v-114.163c0-13.655-11.069-24.724-24.724-24.724h-6.181v138.888c0 8.533 6.918 15.452 15.452 15.452z" fill="#ebad88"/><path d="m30.905 256.652h92.716v89.733h-92.716z" fill="#ff80ab"/><path d="m92.716 256.652h30.905v89.733h-30.905z" fill="#f06a98"/><path d="m77.264 180.629c-8.534 0-15.453-6.918-15.453-15.453v-42.255h30.905v42.255c0 8.535-6.918 15.453-15.452 15.453z" fill="#e8916f"/><path d="m77.264 140.44c-17.069 0-30.905-13.837-30.905-30.905v-16.508c0-17.069 13.837-30.905 30.905-30.905 17.069 0 30.905 13.837 30.905 30.905v16.507c0 17.069-13.837 30.906-30.905 30.906z" fill="#ebad88"/><path d="m77.264 58c-17.069 0-30.905 13.841-30.905 30.915v13.45c2.615 5.805 19.045 3.249 36.373-10.597 8.981 8.138 19.97 16.717 25.438 10.597v-13.45c-.001-17.074-13.838-30.915-30.906-30.915z" fill="#d67b42"/><path d="m388.378 153.836h92.716v128.358h-92.716z" fill="#f75632"/><path d="m450.189 153.836h30.905v128.358h-30.905z" fill="#e33629"/><path d="m481.095 267.191v181.488c0 2.21-1.791 4.001-4 4.001h-22.905c-2.209 0-4-1.791-4-4.001v-135.116c0-8.537-6.918-15.457-15.453-15.457-8.534 0-15.453 6.921-15.453 15.457v135.116c0 2.21-1.791 4.001-4 4.001h-22.905c-2.209 0-4-1.791-4-4.001v-181.488z" fill="#4362a0"/><g><path d="m450.189 267.191v181.488c0 2.21 1.791 4.001 4 4.001h22.905c2.209 0 4-1.791 4-4.001v-181.488z" fill="#3e5a94"/></g><path d="m415.284 452.681h-22.905c-2.209 0-4-1.791-4-4v-13.523c0-8.534 6.918-15.453 15.453-15.453 8.534 0 15.453 6.918 15.453 15.453v13.523c-.001 2.209-1.792 4-4.001 4z" fill="#be652b"/><path d="m477.095 452.681h-22.905c-2.209 0-4-1.791-4-4v-13.523c0-8.534 6.918-15.453 15.453-15.453 8.534 0 15.453 6.918 15.453 15.453v13.523c-.001 2.209-1.792 4-4.001 4z" fill="#be652b"/><path d="m372.926 318.716c-8.534 0-15.453-6.918-15.453-15.453v-124.702c0-13.655 11.069-24.724 24.724-24.724h6.181v149.427c0 8.534-6.918 15.452-15.452 15.452z" fill="#ebad88"/><path d="m496.547 318.716c8.534 0 15.453-6.918 15.453-15.453v-124.702c0-13.655-11.069-24.724-24.724-24.724h-6.181v149.427c0 8.534 6.918 15.452 15.452 15.452z" fill="#ebad88"/><path d="m434.736 174.446c-8.534 0-15.453-6.918-15.453-15.453v-36.072h30.905v36.072c.001 8.535-6.917 15.453-15.452 15.453z" fill="#e8916f"/><path d="m434.736 142.501c-17.069 0-30.905-13.837-30.905-30.905v-16.508c0-17.069 13.837-30.905 30.905-30.905 17.069 0 30.905 13.837 30.905 30.905v16.507c.001 17.069-13.836 30.906-30.905 30.906z" fill="#ebad88"/><path d="m434.736 64.183c-17.069 0-30.905 13.841-30.905 30.915v.99c7.991 4.879 18.887 7.888 30.905 7.888s22.914-3.009 30.905-7.888v-.99c.001-17.074-13.836-30.915-30.905-30.915z" fill="#be652b"/><path d="m388.378 215.666h-30.905v-37.102c0-13.657 11.071-24.728 24.728-24.728h6.177z" fill="#4362a0"/><path d="m481.095 215.666h30.905v-37.102c0-13.657-11.071-24.728-24.728-24.728h-6.177z" fill="#4362a0"/><path d="m317.963 210.361-19.574-19.579c-2.929-2.93-7.678-2.93-10.606 0-2.929 2.93-2.929 7.68 0 10.61l6.216 6.217h-75.997l6.216-6.217c2.929-2.93 2.929-7.68 0-10.61-2.928-2.93-7.677-2.93-10.606 0l-19.574 19.579c-1.407 1.407-2.197 3.315-2.197 5.305s.79 3.898 2.197 5.305l19.574 19.58c1.464 1.465 3.384 2.197 5.303 2.197s3.839-.733 5.303-2.197c2.929-2.93 2.929-7.68 0-10.61l-7.325-7.327h78.217l-7.325 7.327c-2.929 2.93-2.929 7.68 0 10.61 1.464 1.465 3.384 2.197 5.303 2.197s3.839-.733 5.303-2.197l19.574-19.58c1.407-1.407 2.197-3.315 2.197-5.305s-.792-3.898-2.199-5.305z" fill="#f78e36"/><g fill="#4362a0"><path d="m173.744 438.995h-20.604c-4.142 0-7.5 3.359-7.5 7.502s3.358 7.502 7.5 7.502h20.604c4.142 0 7.5-3.359 7.5-7.502s-3.358-7.502-7.5-7.502z"/><path d="m220.023 438.995h-20.604c-4.142 0-7.5 3.359-7.5 7.502s3.358 7.502 7.5 7.502h20.604c4.142 0 7.5-3.359 7.5-7.502s-3.358-7.502-7.5-7.502z"/><path d="m266.302 438.995h-20.604c-4.142 0-7.5 3.359-7.5 7.502s3.358 7.502 7.5 7.502h20.604c4.142 0 7.5-3.359 7.5-7.502s-3.358-7.502-7.5-7.502z"/><path d="m312.581 438.995h-20.604c-4.142 0-7.5 3.359-7.5 7.502s3.358 7.502 7.5 7.502h20.604c4.142 0 7.5-3.359 7.5-7.502s-3.358-7.502-7.5-7.502z"/><path d="m358.86 438.995h-20.604c-4.142 0-7.5 3.359-7.5 7.502s3.358 7.502 7.5 7.502h20.604c4.142 0 7.5-3.359 7.5-7.502s-3.358-7.502-7.5-7.502z"/></g></g></svg>